<svg xmlns="http://www.w3.org/2000/svg" viewBox="0 0 360 50" fill="none">
  <!-- PAWSIC Logo Mark — Diamond grid pattern matching brand -->
  <g transform="translate(2, 1)">
    <!-- Row 1 -->
    <path d="M22 0 L28 6 L22 12 L16 6 Z" fill="#0B1D33"/>
    <path d="M32 0 L38 6 L32 12 L26 6 Z" fill="#1B6BA0"/>
    <path d="M12 0 L18 6 L12 12 L6 6 Z" fill="#1B6BA0"/>
    <!-- Row 2 -->
    <path d="M17 6 L23 12 L17 18 L11 12 Z" fill="#1B6BA0"/>
    <path d="M27 6 L33 12 L27 18 L21 12 Z" fill="#3A9E8F"/>
    <path d="M37 6 L43 12 L37 18 L31 12 Z" fill="#0B1D33"/>
    <path d="M7 6 L13 12 L7 18 L1 12 Z" fill="#0B1D33"/>
    <!-- Row 3 -->
    <path d="M22 12 L28 18 L22 24 L16 18 Z" fill="#0B1D33"/>
    <path d="M32 12 L38 18 L32 24 L26 18 Z" fill="#1B6BA0"/>
    <path d="M12 12 L18 18 L12 24 L6 18 Z" fill="#1B6BA0"/>
    <path d="M42 12 L48 18 L42 24 L36 18 Z" fill="#3A9E8F"/>
    <path d="M2 12 L8 18 L2 24 L-4 18 Z" fill="#3A9E8F"/>
    <!-- Row 4 -->
    <path d="M17 18 L23 24 L17 30 L11 24 Z" fill="#3A9E8F"/>
    <path d="M27 18 L33 24 L27 30 L21 24 Z" fill="#1B6BA0"/>
    <path d="M37 18 L43 24 L37 30 L31 24 Z" fill="#0B1D33"/>
    <path d="M7 18 L13 24 L7 30 L1 24 Z" fill="#0B1D33"/>
    <!-- Row 5 -->
    <path d="M22 24 L28 30 L22 36 L16 30 Z" fill="#1B6BA0"/>
    <path d="M32 24 L38 30 L32 36 L26 30 Z" fill="#0B1D33"/>
    <path d="M12 24 L18 30 L12 36 L6 30 Z" fill="#0B1D33"/>
    <!-- Row 6 -->
    <path d="M17 30 L23 36 L17 42 L11 36 Z" fill="#0B1D33"/>
    <path d="M27 30 L33 36 L27 42 L21 36 Z" fill="#3A9E8F"/>
    <!-- Row 7 -->
    <path d="M22 36 L28 42 L22 48 L16 42 Z" fill="#1B6BA0"/>
  </g>
  <!-- PAWSIC Wordmark -->
  <text x="58" y="22" font-family="'Inter', 'Segoe UI', Arial, sans-serif" font-size="22" font-weight="800" fill="#0B1D33" letter-spacing="3">PAWSIC</text>
  <!-- Tagline -->
  <text x="58" y="38" font-family="'Inter', 'Segoe UI', Arial, sans-serif" font-size="6.8" font-weight="500" fill="#4A5568" letter-spacing="0.8">POST-ACUTE WOUND &amp; SKIN INTEGRITY COUNCIL</text>
</svg>
